<svg xmlns="http://www.w3.org/2000/svg" viewBox="-0.5 -0.5 24 24" id="Content-Files-Pdf--Streamline-Pixel.svg" height="24" width="24"><desc>Content Files Pdf Streamline Icon: https://streamlinehq.com</desc><title>content-files-pdf</title><g><path d="M21.90175 4.3843749999999995H18.615624999999998V1.0960937499999999h1.0996875V0H4.3786249999999995v8.768749999999999h-1.0925v1.0925h1.0925v2.1921874999999997h-1.0925v-2.1921874999999997h-1.0925v8.7615625h1.0925v1.0925h1.0925V23H23V3.2882812500000003h-1.0996875ZM5.4783124999999995 13.14234375h3.2846875000000004v3.2846875000000004h-2.1921874999999997v2.1921874999999997h-1.0925Zm16.423437500000002 8.7615625H5.4783124999999995v-2.1921874999999997H18.615624999999998v-1.0925h1.0996875v-5.476875H18.615624999999998v-1.0925H5.4783124999999995V1.0960937499999999h12.04625v4.3771875h4.3771875Zm-8.7615625 -7.6690625v3.291875h-1.0925v1.0925h-2.1921874999999997v-5.476875h2.1921874999999997v1.0925Zm4.3843749999999995 1.0996875v1.0925h-2.1921874999999997v2.1921874999999997h-1.0925v-5.476875h3.2846875000000004v1.0925h-2.1921874999999997v1.0996875Z" fill="#dcdcdc" stroke-width="1"></path><path d="M20.809250000000002 2.18859375h1.0925v1.0996875h-1.0925Z" fill="#dcdcdc" stroke-width="1"></path><path d="M19.716749999999998 1.0960937499999999h1.0925v1.0925h-1.0925Z" fill="#dcdcdc" stroke-width="1"></path><path d="M10.955187500000001 14.23484375h1.0925v3.291875h-1.0925Z" fill="#dcdcdc" stroke-width="1"></path><path d="M6.5708125 14.23484375h1.0996875v1.0996875h-1.0996875Z" fill="#dcdcdc" stroke-width="1"></path></g></svg>