<svg xmlns="http://www.w3.org/2000/svg" viewBox="-0.5 -0.5 24 24" id="Internet-Network-Download--Streamline-Pixel.svg" height="24" width="24"><desc>Internet Network Download Streamline Icon: https://streamlinehq.com</desc><title>internet-network-download</title><g><path d="M20.811406249999997 18.615624999999998h1.0925v2.1921874999999997h-1.0925Z" fill="#d4d4d4" stroke-width="1"></path><path d="M19.71890625 16.430625h1.0925v2.185h-1.0925Z" fill="#d4d4d4" stroke-width="1"></path><path d="m2.19578125 20.8078125 0 1.0996875 1.0925 0 0 1.0925 16.430625 0 0 -1.0925 1.0925 0 0 -1.0996875 -18.615624999999998 0z" fill="#d4d4d4" stroke-width="1"></path><path d="M15.334531250000001 6.569375000000001h3.2846875000000004v1.0996875h-3.2846875000000004Z" fill="#d4d4d4" stroke-width="1"></path><path d="M9.85765625 18.615624999999998h3.2846875000000004v1.0996875h-3.2846875000000004Z" fill="#d4d4d4" stroke-width="1"></path><path d="M9.85765625 2.1921874999999997h3.2846875000000004v1.0925h-3.2846875000000004Z" fill="#d4d4d4" stroke-width="1"></path><path d="M9.85765625 0h3.2846875000000004v1.0925h-3.2846875000000004Z" fill="#d4d4d4" stroke-width="1"></path><path d="m9.85765625 9.854062500000001 -2.1921874999999997 0 0 1.0996875 1.0996875 0 0 1.0925 1.0925 0 0 1.0925 1.0996875 0 0 1.0996875 1.0925 0 0 -1.0996875 1.0925 0 0 -1.0925 1.0996875 0 0 -1.0925 1.0925 0 0 -1.0996875 -2.1921874999999997 0 0 -5.476875 -3.2846875000000004 0 0 5.476875z" fill="#d4d4d4" stroke-width="1"></path><path d="M4.38078125 6.569375000000001h3.2846875000000004v1.0996875h-3.2846875000000004Z" fill="#d4d4d4" stroke-width="1"></path><path d="m19.71890625 16.430625 0 -8.7615625 -1.0996875 0 0 7.661875 -14.2384375 0 0 -7.661875 -1.0925 0 0 8.7615625 16.430625 0z" fill="#d4d4d4" stroke-width="1"></path><path d="M2.19578125 16.430625h1.0925v2.185h-1.0925Z" fill="#d4d4d4" stroke-width="1"></path><path d="M1.0960937499999999 18.615624999999998h1.0996875v2.1921874999999997h-1.0996875Z" fill="#d4d4d4" stroke-width="1"></path></g></svg>